<?xml version="1.0" encoding="utf-8"?>
<!-- Generator: Adobe Illustrator 25.2.3, SVG Export Plug-In . SVG Version: 6.00 Build 0)  -->
<svg version="1.1" id="Layer_1" xmlns="http://www.w3.org/2000/svg" xmlns:xlink="http://www.w3.org/1999/xlink" x="0px" y="0px"
	 viewBox="0 0 100.1 40" style="enable-background:new 0 0 100.1 40;" xml:space="preserve">
<style type="text/css">
	.st0{fill:#FFFFFF;}
	.st1{clip-path:url(#SVGID_2_);fill:#173FC1;}
	.st2{clip-path:url(#SVGID_2_);}
</style>
<g>
	<g>
		<path class="st0" d="M2,7.8h9.5v3.6H2V7.8z M3.9,5.3c0-1.6,0.4-2.8,1.1-3.6c0.7-0.8,1.9-1.2,3.4-1.2h3v3.8H9.2
			c-0.3,0-0.6,0.1-0.8,0.4C8.2,5,8.1,5.3,8.1,5.7V26H3.9V5.3z"/>
		<path class="st0" d="M14.7,0.5h4.2v4.2h-4.2V0.5z M14.7,7.8h4.2V26h-4.2V7.8z"/>
		<path class="st0" d="M23.8,7.8H28V26h-4.2V7.8z M34.6,14.9c0-1.1-0.3-1.9-0.9-2.5s-1.4-0.9-2.5-0.9c-1,0-1.8,0.3-2.4,0.8
			c-0.6,0.6-0.8,1.3-0.8,2.4l-0.4-3.8c0.5-1.1,1.2-2,2.1-2.6c0.8-0.6,1.8-0.9,3-0.9c1.9,0,3.4,0.6,4.5,1.9c1.1,1.3,1.6,3.1,1.6,5.5
			v11h-4.2V14.9z"/>
		<path class="st0" d="M46.9,25.3c-1.2-0.6-2-1.5-2.6-2.7c-0.6-1.2-0.9-2.6-0.9-4.3v-3c0-1.6,0.3-3.1,0.9-4.2
			c0.6-1.2,1.5-2.1,2.6-2.7C48,7.8,49.4,7.5,51,7.5c1.6,0,3,0.3,4.1,0.9c1.2,0.6,2,1.5,2.6,2.7c0.6,1.2,0.9,2.6,0.9,4.2v3
			c0,1.7-0.3,3.1-0.9,4.3c-0.6,1.2-1.5,2.1-2.6,2.7c-1.2,0.6-2.5,0.9-4.1,0.9C49.4,26.2,48,25.9,46.9,25.3z M53.6,21.2
			c0.6-0.7,0.9-1.6,0.9-2.8v-3c0-1.2-0.3-2.2-0.9-2.8c-0.6-0.7-1.5-1-2.6-1c-1.1,0-2,0.3-2.6,1c-0.6,0.7-0.9,1.6-0.9,2.8v3
			c0,1.2,0.3,2.2,0.9,2.8c0.6,0.7,1.5,1,2.6,1C52.1,22.2,53,21.9,53.6,21.2z"/>
		<path class="st0" d="M63.4,7.8h4.4V26h-4.4V7.8z M72.5,11.8c-0.4-0.2-0.9-0.2-1.4-0.2c-1.1,0-1.9,0.3-2.4,0.9
			c-0.6,0.6-0.9,1.5-0.9,2.6l-0.4-4.1C68,9.9,68.6,9,69.5,8.4c0.8-0.6,1.8-0.9,2.8-0.9c0.8,0,1.5,0.1,2.2,0.4
			c0.6,0.2,1.2,0.6,1.7,1.1l-2.6,3.5C73.3,12.1,72.9,11.9,72.5,11.8z"/>
	</g>
</g>
<g>
	<g>
		<path class="st0" d="M2.7,34.2h0.6V40H2.7V34.2z M3.1,34.2h3.2v0.5H3.1V34.2z M3.1,36.9h2.8v0.5H3.1V36.9z"/>
		<path class="st0" d="M8,40H7.4v-5.8H8V40z"/>
		<path class="st0" d="M9.5,34.2h0.6l3.4,5.2l-0.2-0.2v-5.1h0.6V40h-0.6l-3.4-5.3l0.3,0.2v5H9.5V34.2z"/>
		<path class="st0" d="M16.8,34.2h0.7l2.1,5.8H19l-1.8-5.2L15.3,40h-0.6L16.8,34.2z M15.7,38.1h3v0.5h-3V38.1z"/>
		<path class="st0" d="M20.5,34.2h0.6l3.4,5.2l-0.2-0.2v-5.1h0.6V40h-0.6l-3.4-5.3l0.3,0.2v5h-0.6V34.2z"/>
		<path class="st0" d="M25.4,34.2h4.1v0.5h-4.1V34.2z M27.2,34.4h0.6V40h-0.6V34.4z"/>
		<path class="st0" d="M30.9,40h-0.6v-5.8h0.6V40z"/>
		<path class="st0" d="M34,34.2h0.7l2.1,5.8h-0.6l-1.8-5.2L32.5,40h-0.6L34,34.2z M32.8,38.1h3v0.5h-3V38.1z"/>
		<path class="st0" d="M37.7,34.2h0.6V40h-0.6V34.2z M38.1,39.5h3.3V40h-3.3V39.5z"/>
		<path class="st0" d="M45.4,39.8c-0.3-0.2-0.5-0.4-0.7-0.7s-0.2-0.7-0.2-1.2v-1.6c0-0.5,0.1-0.8,0.2-1.2s0.4-0.6,0.7-0.7
			c0.3-0.2,0.7-0.3,1.1-0.3s0.8,0.1,1.1,0.3c0.3,0.2,0.5,0.4,0.7,0.7c0.2,0.3,0.2,0.7,0.2,1.2v1.6c0,0.5-0.1,0.8-0.2,1.2
			c-0.2,0.3-0.4,0.6-0.7,0.7c-0.3,0.2-0.7,0.3-1.1,0.3S45.7,40,45.4,39.8z M47.3,39.3c0.2-0.1,0.4-0.3,0.5-0.5
			c0.1-0.2,0.2-0.5,0.2-0.8v-1.7c0-0.3-0.1-0.6-0.2-0.9c-0.1-0.2-0.3-0.4-0.5-0.5c-0.2-0.1-0.5-0.2-0.8-0.2s-0.6,0.1-0.8,0.2
			c-0.2,0.1-0.4,0.3-0.5,0.5c-0.1,0.2-0.2,0.5-0.2,0.9V38c0,0.3,0.1,0.6,0.2,0.8c0.1,0.2,0.3,0.4,0.5,0.5c0.2,0.1,0.5,0.2,0.8,0.2
			S47,39.5,47.3,39.3z"/>
		<path class="st0" d="M49.8,34.2h0.6V40h-0.6V34.2z M50.2,37h2c0.2,0,0.4,0,0.6-0.1c0.2-0.1,0.3-0.2,0.4-0.4
			c0.1-0.2,0.1-0.4,0.1-0.6c0-0.2,0-0.4-0.1-0.6c-0.1-0.2-0.2-0.3-0.4-0.4c-0.2-0.1-0.4-0.1-0.6-0.1h-2v-0.5h1.9
			c0.3,0,0.6,0.1,0.9,0.2c0.3,0.1,0.4,0.3,0.6,0.6c0.1,0.3,0.2,0.5,0.2,0.9s-0.1,0.6-0.2,0.9c-0.1,0.3-0.3,0.4-0.6,0.6
			c-0.3,0.1-0.5,0.2-0.9,0.2h-1.9V37z M52,37.4l0.5-0.2L54,40h-0.7L52,37.4z"/>
		<path class="st0" d="M59.1,37v0.9c0,0.5-0.1,0.9-0.2,1.2c-0.1,0.3-0.4,0.6-0.7,0.7c-0.3,0.2-0.7,0.2-1.1,0.2
			c-0.5,0-0.8-0.1-1.1-0.2c-0.3-0.2-0.5-0.4-0.7-0.7C55.1,38.9,55,38.5,55,38v-1.7c0-0.5,0.1-0.9,0.2-1.2c0.2-0.3,0.4-0.6,0.7-0.7
			c0.3-0.2,0.7-0.2,1.1-0.2c0.4,0,0.7,0.1,1,0.2c0.3,0.1,0.5,0.3,0.7,0.6c0.2,0.3,0.3,0.6,0.4,1h-0.6c-0.1-0.3-0.2-0.5-0.3-0.7
			c-0.1-0.2-0.3-0.3-0.5-0.4c-0.2-0.1-0.4-0.1-0.6-0.1c-0.3,0-0.6,0.1-0.8,0.2c-0.2,0.1-0.4,0.3-0.5,0.5c-0.1,0.2-0.2,0.5-0.2,0.9
			V38c0,0.3,0.1,0.6,0.2,0.8s0.3,0.4,0.5,0.5c0.2,0.1,0.5,0.2,0.8,0.2c0.3,0,0.6-0.1,0.8-0.2s0.4-0.3,0.5-0.5s0.2-0.5,0.2-0.9v-0.3
			h-1.4V37H59.1z"/>
		<path class="st0" d="M62,34.2h0.7l2.1,5.8h-0.6l-1.8-5.2L60.5,40h-0.6L62,34.2z M60.8,38.1h3v0.5h-3V38.1z"/>
		<path class="st0" d="M65.7,34.2h0.6l3.4,5.2l-0.2-0.2v-5.1H70V40h-0.6L66,34.7l0.3,0.2v5h-0.6V34.2z"/>
		<path class="st0" d="M72.1,40h-0.6v-5.8h0.6V40z"/>
		<path class="st0" d="M76.9,34.6l-2.9,4.9H77V40h-3.6v-0.4l2.9-4.9h-2.8v-0.5h3.4V34.6z"/>
		<path class="st0" d="M79.7,34.2h0.7l2.1,5.8h-0.6L80,34.8L78.2,40h-0.6L79.7,34.2z M78.5,38.1h3v0.5h-3V38.1z"/>
		<path class="st0" d="M82.6,34.2h4.1v0.5h-4.1V34.2z M84.3,34.4h0.6V40h-0.6V34.4z"/>
		<path class="st0" d="M88,40h-0.6v-5.8H88V40z"/>
		<path class="st0" d="M90.4,39.8c-0.3-0.2-0.5-0.4-0.7-0.7c-0.2-0.3-0.2-0.7-0.2-1.2v-1.6c0-0.5,0.1-0.8,0.2-1.2
			c0.2-0.3,0.4-0.6,0.7-0.7c0.3-0.2,0.7-0.3,1.1-0.3c0.4,0,0.8,0.1,1.1,0.3c0.3,0.2,0.5,0.4,0.7,0.7s0.2,0.7,0.2,1.2v1.6
			c0,0.5-0.1,0.8-0.2,1.2s-0.4,0.6-0.7,0.7c-0.3,0.2-0.7,0.3-1.1,0.3C91,40.1,90.7,40,90.4,39.8z M92.2,39.3
			c0.2-0.1,0.4-0.3,0.5-0.5c0.1-0.2,0.2-0.5,0.2-0.8v-1.7c0-0.3-0.1-0.6-0.2-0.9c-0.1-0.2-0.3-0.4-0.5-0.5c-0.2-0.1-0.5-0.2-0.8-0.2
			c-0.3,0-0.6,0.1-0.8,0.2c-0.2,0.1-0.4,0.3-0.5,0.5c-0.1,0.2-0.2,0.5-0.2,0.9V38c0,0.3,0.1,0.6,0.2,0.8c0.1,0.2,0.3,0.4,0.5,0.5
			c0.2,0.1,0.5,0.2,0.8,0.2C91.8,39.5,92,39.5,92.2,39.3z"/>
		<path class="st0" d="M94.8,34.2h0.6l3.4,5.2l-0.2-0.2v-5.1h0.6V40h-0.6l-3.4-5.3l0.3,0.2v5h-0.6V34.2z"/>
	</g>
</g>
<g>
</g>
</svg>
