<?xml version="1.0" encoding="utf-8"?>
<!-- Generator: Adobe Illustrator 25.2.3, SVG Export Plug-In . SVG Version: 6.00 Build 0)  -->
<svg version="1.1" id="Layer_1" xmlns="http://www.w3.org/2000/svg" xmlns:xlink="http://www.w3.org/1999/xlink" x="0px" y="0px"
	 viewBox="0 0 111.4 27.8" style="enable-background:new 0 0 111.4 27.8;" xml:space="preserve">
<style type="text/css">
	.st0{fill:#FFFFFF;}
	.st1{clip-path:url(#SVGID_2_);fill:#173FC1;}
	.st2{clip-path:url(#SVGID_2_);}
</style>
<text transform="matrix(1 0 0 1 960 495.6429)" style="font-family:'MyriadPro-Regular'; font-size:12px;">173fc1</text>
<text transform="matrix(1 0 0 1 960 495.6429)" style="font-family:'MyriadPro-Regular'; font-size:12px;">173fc1</text>
<g>
	<g>
		<path class="st0" d="M33.6,8.4h9.7v3.7h-9.7V8.4z M35.6,5.9c0-1.7,0.4-2.9,1.1-3.7c0.8-0.8,1.9-1.2,3.5-1.2h3.1v3.9H41
			c-0.3,0-0.6,0.1-0.8,0.4c-0.2,0.3-0.3,0.6-0.3,1v20.8h-4.3V5.9z"/>
		<path class="st0" d="M46.6,0.9h4.3v4.3h-4.3V0.9z M46.6,8.4h4.3v18.7h-4.3V8.4z"/>
		<path class="st0" d="M56,8.4h4.3v18.7H56V8.4z M67.1,15.8c0-1.1-0.3-2-0.9-2.6c-0.6-0.6-1.5-0.9-2.6-0.9c-1.1,0-1.9,0.3-2.4,0.9
			c-0.6,0.6-0.9,1.4-0.9,2.4l-0.4-3.9c0.6-1.2,1.3-2,2.1-2.6c0.9-0.6,1.9-0.9,3-0.9c2,0,3.5,0.7,4.6,2c1.1,1.3,1.6,3.2,1.6,5.6v11.3
			h-4.3V15.8z"/>
		<path class="st0" d="M79.7,26.4c-1.2-0.6-2.1-1.6-2.7-2.8c-0.6-1.2-0.9-2.7-0.9-4.4v-3c0-1.7,0.3-3.1,0.9-4.3
			c0.6-1.2,1.5-2.1,2.7-2.8c1.2-0.6,2.6-0.9,4.3-0.9c1.7,0,3.1,0.3,4.3,0.9c1.2,0.6,2.1,1.5,2.7,2.8c0.6,1.2,0.9,2.7,0.9,4.3v3.1
			c0,1.7-0.3,3.2-0.9,4.4c-0.6,1.2-1.5,2.1-2.7,2.8c-1.2,0.6-2.6,1-4.3,1C82.3,27.3,80.9,27,79.7,26.4z M86.6,22.2
			c0.6-0.7,0.9-1.7,0.9-2.9v-3.1c0-1.2-0.3-2.2-0.9-2.9c-0.6-0.7-1.5-1-2.6-1c-1.1,0-2,0.3-2.6,1c-0.6,0.7-0.9,1.7-0.9,2.9v3.1
			c0,1.3,0.3,2.2,0.9,2.9c0.6,0.7,1.5,1,2.7,1C85.1,23.2,86,22.9,86.6,22.2z"/>
		<path class="st0" d="M96.7,8.4h4.5v18.7h-4.5V8.4z M106,12.5c-0.4-0.2-0.9-0.2-1.5-0.2c-1.1,0-1.9,0.3-2.5,1
			c-0.6,0.6-0.9,1.5-0.9,2.7l-0.4-4.2c0.5-1.1,1.2-2,2.1-2.6s1.8-0.9,2.9-0.9c0.8,0,1.6,0.1,2.2,0.4c0.7,0.2,1.2,0.6,1.7,1.1
			l-2.6,3.6C106.8,12.9,106.5,12.6,106,12.5z"/>
	</g>
</g>
<g>
	<defs>
		<circle id="SVGID_1_" cx="13.9" cy="13.8" r="13.5"/>
	</defs>
	<clipPath id="SVGID_2_">
		<use xlink:href="#SVGID_1_"  style="overflow:visible;"/>
	</clipPath>
	<circle class="st1" cx="13.9" cy="13.8" r="13.5"/>
	<g class="st2">
		<path class="st0" d="M-9.4,8.4h47.5v3.7H-9.4V8.4z M8.8,5.9c0-1.7,0.4-2.9,1.2-3.7c0.8-0.8,1.9-1.2,3.5-1.2H33v4H14.2
			c-0.4,0-0.6,0.1-0.8,0.4c-0.2,0.3-0.3,0.6-0.3,1v28.9H8.8V5.9z"/>
	</g>
</g>
</svg>
